<?xml version="1.0" encoding="UTF-8"?>
<svg version="1.1" xmlns="http://www.w3.org/2000/svg" width="1024" height="1024">
<path d="M0 0 C337.92 0 675.84 0 1024 0 C1024 337.92 1024 675.84 1024 1024 C686.08 1024 348.16 1024 0 1024 C0 686.08 0 348.16 0 0 Z " fill="#020202" transform="translate(0,0)"/>
<path d="M0 0 C0.72291924 -0.00175304 1.44583847 -0.00350607 2.19066435 -0.00531223 C4.61982542 -0.00997448 7.0489267 -0.00750615 9.47809029 -0.00507832 C11.23458217 -0.00694617 12.99107363 -0.00924677 14.74756444 -0.01194364 C19.57982857 -0.01807113 24.41207543 -0.01792693 29.24434257 -0.01674926 C34.45371058 -0.0165455 39.66307301 -0.02206168 44.87243843 -0.02680683 C55.08035554 -0.03511901 65.28826687 -0.03786192 75.49618708 -0.03841921 C83.79168077 -0.03889407 92.08717255 -0.04094734 100.38266563 -0.04411983 C123.89145332 -0.05292774 147.40023643 -0.05753897 170.90902577 -0.05678936 C172.81071683 -0.05672943 172.81071683 -0.05672943 174.75082588 -0.05666828 C176.6548332 -0.05660696 176.6548332 -0.05660696 178.59730531 -0.0565444 C199.17522005 -0.05613783 219.7531165 -0.06570983 240.33102594 -0.07980665 C261.45002109 -0.09416023 282.56900732 -0.1010774 303.68800747 -0.10021287 C315.54886848 -0.09988056 327.40971032 -0.10264249 339.27056694 -0.11339092 C349.36795367 -0.12248251 359.46531253 -0.12468222 369.56270157 -0.1178815 C374.71590109 -0.11460958 379.86904711 -0.1145838 385.02224159 -0.12323475 C389.73855243 -0.13107097 394.45476707 -0.12969787 399.17107548 -0.12095062 C400.87830753 -0.11940927 402.58554666 -0.12125556 404.29277037 -0.12681069 C406.61227897 -0.13385895 408.93144899 -0.12858653 411.25094604 -0.12025452 C412.53966452 -0.12047188 413.828383 -0.12068925 415.15615356 -0.12091321 C418.93812305 0.14160125 422.14942351 0.97566591 425.75131416 2.12863445 C426.53635323 2.30523602 427.32139229 2.48183758 428.13022041 2.6637907 C441.52286065 5.89814926 454.59731667 16.03252383 462.00131416 27.48800945 C464.10095054 30.9492539 466.06554957 34.44634792 467.75131416 38.12863445 C468.09189889 38.86964209 468.43248362 39.61064972 468.78338909 40.37411213 C472.05916882 48.33599791 472.31543484 55.70250577 472.25302315 64.2160368 C472.25681459 65.70394176 472.26232139 67.19184317 472.26939583 68.67973614 C472.28326276 72.69031283 472.27224185 76.70045627 472.25568461 80.71100855 C472.24174018 84.92896537 472.24830501 89.14689941 472.2518177 93.36487103 C472.25451305 100.44765404 472.24110467 107.53026694 472.2178669 114.61300945 C472.19128201 122.77178445 472.18950608 130.93027485 472.20125526 139.08907831 C472.21208137 146.97265779 472.20580691 154.85613554 472.19169998 162.73970699 C472.18597985 166.07829128 472.18599131 169.41680013 472.19076538 172.7553854 C472.19558165 176.69705881 472.18524386 180.63842568 472.16381073 184.58004093 C472.15830459 186.01620545 472.15771978 187.4523998 472.1627636 188.88856602 C472.22138705 207.9947454 467.19290509 221.6788461 454.75131416 236.12863445 C452.23568916 238.2262907 452.23568916 238.2262907 449.50131416 240.19113445 C448.60928291 240.84211102 447.71725166 241.49308758 446.79818916 242.1637907 C443.2812537 244.43176319 439.49431128 246.2571359 435.75131416 248.12863445 C436.41131416 257.69863445 437.07131416 267.26863445 437.75131416 277.12863445 C431.01167267 274.88208729 431.01167267 274.88208729 427.86850166 273.3591032 C427.18247871 273.03015057 426.49645576 272.70119793 425.78964424 272.36227703 C425.07574532 272.01704998 424.36184639 271.67182293 423.62631416 271.31613445 C416.74741564 268.04022239 409.85028075 264.90524638 402.75131416 262.12863445 C401.77162666 261.74320477 400.79193916 261.35777508 399.78256416 260.9606657 C392.21529824 258.12294098 384.52345505 255.83182689 376.75131416 253.62863445 C375.79845528 253.35615887 374.84559639 253.08368328 373.86386299 252.80295086 C306.45386842 234.06234438 235.38705931 231.94635995 165.86459541 234.5856657 C164.84310905 234.62366787 163.8216227 234.66167004 162.76918221 234.70082378 C157.69671789 234.91551895 152.77393717 235.34392422 147.75131416 236.12863445 C146.2803878 236.23735975 144.80738016 236.32308395 143.33334541 236.3747282 C142.55281807 236.4075993 141.77229073 236.44047039 140.96811104 236.47433758 C139.38489505 236.5347853 137.80155814 236.59215652 136.21811104 236.64621258 C130.62928811 236.88880686 125.26084421 237.66003887 119.75399971 238.63132 C116.05815556 239.24343761 112.36118825 239.63311522 108.63583565 240.01510906 C96.69459756 241.26128313 84.9630287 243.26656912 73.18881416 245.56613445 C72.43930489 245.71134533 71.68979561 245.85655621 70.91757393 246.00616741 C68.71375896 246.43543534 66.51149854 246.87170067 64.30990791 247.3122282 C63.58695534 247.45612988 62.86400276 247.60003155 62.11914253 247.74829388 C57.38280934 248.71836052 52.79262721 249.97992799 48.14584541 251.32394695 C38.606479 253.89710256 28.93818494 253.69487009 19.12289619 253.59518719 C15.99199079 253.56604768 12.86276823 253.57466067 9.73178291 253.58761883 C-9.78086397 253.56864425 -26.5493701 250.53096448 -41.08071709 236.35519695 C-42.15386162 235.25304852 -42.15386162 235.25304852 -43.24868584 234.12863445 C-43.87130302 233.53824383 -44.49392021 232.9478532 -45.13540459 232.33957195 C-49.26652154 228.12490432 -51.9122115 223.34803727 -54.56118584 218.12863445 C-54.89908134 217.46404217 -55.23697685 216.79944988 -55.58511162 216.11471844 C-60.17874351 206.65416264 -60.54770376 197.95649874 -60.53921318 187.56540203 C-60.5452058 186.09764549 -60.55201303 184.62989208 -60.55956841 183.16214275 C-60.57716372 179.19284491 -60.58192112 175.22363343 -60.58319998 171.25430036 C-60.58462613 168.76830265 -60.58890454 166.28232658 -60.59419441 163.79633427 C-60.61267526 155.10589879 -60.62086771 146.41552448 -60.61929131 137.72507 C-60.61809133 129.65324076 -60.63917027 121.58167952 -60.67077863 113.50991803 C-60.69702615 106.55673218 -60.70765502 99.60363338 -60.70638049 92.65039843 C-60.70587322 88.50789875 -60.71142475 84.36563731 -60.73273659 80.22318745 C-60.7522619 76.32174517 -60.75214724 72.42076488 -60.73770332 68.51930523 C-60.7356315 67.0976388 -60.74021761 65.67594235 -60.75242424 64.25432682 C-60.90370806 45.39479528 -54.28198271 30.1960504 -41.12368584 16.8200407 C-30.21991375 6.61256928 -14.95040977 0.00817409 0 0 Z " fill="#7F807E" transform="translate(308.248685836792,378.8713655471802)"/>
<path d="M0 0 C0.69609375 0.29003906 1.3921875 0.58007812 2.109375 0.87890625 C7.09292442 3.11775646 10.33315004 5.96646504 14 10 C14.33 6.7 14.66 3.4 15 0 C24.9 0 34.8 0 45 0 C45.1134114 13.41395199 45.2049521 26.82758033 45.25906086 40.24190521 C45.28504341 46.47216244 45.32023287 52.70207181 45.37719727 58.93212891 C45.43192306 64.95573803 45.46150561 70.97901466 45.47438622 77.00285339 C45.4835537 79.28953782 45.5014536 81.57620612 45.52865028 83.86274719 C45.73434228 101.88947538 44.61346666 119.36126107 31.81640625 133.39453125 C17.55883244 147.15023846 -0.72399195 150.41285802 -19.8515625 150.14453125 C-35.43648745 149.71530022 -49.04786175 142.89356095 -60.0625 132.0625 C-60.701875 131.381875 -61.34125 130.70125 -62 130 C-60.6415798 126.95667235 -59.11536976 124.87690849 -56.7421875 122.546875 C-56.11699219 121.928125 -55.49179687 121.309375 -54.84765625 120.671875 C-54.19667969 120.03765625 -53.54570313 119.4034375 -52.875 118.75 C-51.88693359 117.77546875 -51.88693359 117.77546875 -50.87890625 116.78125 C-49.25703357 115.18288273 -47.6306719 113.58938103 -46 112 C-42.80861311 113.19196378 -40.10377431 114.49390118 -37.3125 116.4375 C-27.46028965 122.62717862 -16.14385288 123.67257614 -4.8046875 121.34375 C3.12776209 118.83649073 6.84831957 114.8581856 10.8125 107.75 C12.3617028 102.85778062 12.73227232 98.10528982 13 93 C12.07380859 93.68835938 12.07380859 93.68835938 11.12890625 94.390625 C-1.26823913 103.37242287 -11.79806264 106.21887874 -27 105 C-40.09574915 102.69958269 -49.14003671 95.47421803 -57 85 C-65.77111696 70.94343074 -68.3006663 52.96137547 -64.92333984 36.84301758 C-61.59809408 22.94549545 -54.64935703 12.40097135 -42.875 4.3125 C-29.99908817 -3.47619871 -14.06863708 -6.45274102 0 0 Z " fill="#E1E1D7" transform="translate(693,463)"/>
<path d="M0 0 C10.89 0 21.78 0 33 0 C33.33 15.18 33.66 30.36 34 46 C37.3 43.69 40.6 41.38 44 39 C50.19754641 35.50449805 55.86637673 35.51518894 62.8125 35.5625 C63.84181641 35.54251953 64.87113281 35.52253906 65.93164062 35.50195312 C79.18864081 35.51033832 89.1345572 41.26409386 98.484375 50.4375 C106.78767 59.79960442 111.86937996 71.40449574 112 84 C112.06058594 85.12792969 112.12117188 86.25585938 112.18359375 87.41796875 C112.75571994 104.14832544 107.89823381 119.97255842 96.375 132.375 C85.34340078 142.7003078 73.64005645 146.55797064 58.8828125 146.30859375 C48.7021098 145.49946346 39.58757534 141.95385008 32 135 C32 134.34 32 133.68 32 133 C31.34 133 30.68 133 30 133 C30 136.3 30 139.6 30 143 C20.1 143 10.2 143 0 143 C0 95.81 0 48.62 0 0 Z " fill="#E8E8DF" transform="translate(295,425)"/>
<path d="M0 0 C16.27845297 0 31.38197545 2.61793737 44.0625 13.44921875 C45.96289535 14.97030132 47.78945324 15.998346 50 17 C50.78310547 16.22076172 50.78310547 16.22076172 51.58203125 15.42578125 C64.54656956 3.14239206 80.59502915 0 98 0 C98 23.76 98 47.52 98 72 C84.01869023 75.49532744 84.01869023 75.49532744 78.73925781 72.88012695 C77.98483398 72.42081787 77.23041016 71.96150879 76.453125 71.48828125 C75.6075 70.97716797 74.761875 70.46605469 73.890625 69.93945312 C73.01921875 69.40255859 72.1478125 68.86566406 71.25 68.3125 C70.3940625 67.79494141 69.538125 67.27738281 68.65625 66.74414062 C63.63757293 63.69111207 58.8047317 60.50955783 54.09667969 56.99291992 C51.36933116 55.70133556 49.83740632 56.16505019 47 57 C47.56874711 63.51117386 48.77541679 69.47268249 50.5625 75.75 C53.48075885 86.02420059 53.48075885 86.02420059 53 90 C51.5 91.8125 51.5 91.8125 50 93 C46.66452071 91.50056436 44.09667006 89.53087229 41.25 87.25 C29.27357924 78.45132288 14.410997 75.40183283 0 73 C0 48.91 0 24.82 0 0 Z " fill="#5EE0C6" transform="translate(498,442)"/>
<path d="M0 0 C10.56 0 21.12 0 32 0 C32.0093457 3.30080566 32.01869141 6.60161133 32.02832031 10.00244141 C32.06208399 20.90700259 32.11762968 31.81137441 32.18390274 42.71578407 C32.22341557 49.32729716 32.25558559 55.93867629 32.27099609 62.55029297 C32.28613728 68.93061123 32.32053852 75.31056131 32.36830902 81.69071579 C32.38314887 84.12513403 32.3910425 86.55960482 32.39188385 88.99406815 C32.3942473 92.40350879 32.42127897 95.81192683 32.45410156 99.22119141 C32.4490712 100.22820099 32.44404083 101.23521057 32.43885803 102.2727356 C32.53401912 108.65979098 33.37661205 112.37661205 38 117 C42.84034716 117.16407956 47.23258627 116.95348275 52 116 C52.92553743 119.13850064 53.11664647 121.93680778 53.09765625 125.203125 C53.09443359 126.1828125 53.09121094 127.1625 53.08789062 128.171875 C53.07532227 129.69554687 53.07532227 129.69554687 53.0625 131.25 C53.05798828 132.28125 53.05347656 133.3125 53.04882812 134.375 C53.03706088 136.91672573 53.02062011 139.45833319 53 142 C40.97771073 146.23885693 25.91113187 147.97792656 14 142.5 C5.9659746 137.56398727 2.18766713 130.99958333 0 122 C-0.40071484 117.92100273 -0.38043183 113.87491927 -0.34057617 109.77905273 C-0.34101425 108.58780289 -0.34145233 107.39655304 -0.34190369 106.16920471 C-0.34018211 102.9300127 -0.32522411 99.6912187 -0.30418181 96.45210528 C-0.28532094 93.05687896 -0.28365721 89.66164331 -0.28010559 86.26637268 C-0.27081257 79.84922487 -0.24623637 73.43223192 -0.21605712 67.01515204 C-0.18242721 59.70434256 -0.1660056 52.39352537 -0.15097082 45.08265769 C-0.119684 30.0550049 -0.06470671 15.02755303 0 0 Z " fill="#F6F6F0" transform="translate(420,425)"/>
<path d="M0 0 C0.33 0 0.66 0 1 0 C0.99723462 0.76623027 0.99446924 1.53246054 0.99162006 2.3219099 C0.92521495 21.01135264 0.87564895 39.70077167 0.84456348 58.39030743 C0.8291292 67.42862385 0.80810583 76.46686126 0.77368164 85.50512695 C0.74367357 93.38770965 0.72440004 101.2702351 0.71773452 109.15287334 C0.71384148 113.32229601 0.70476497 117.49155498 0.68280983 121.66092491 C0.6622639 125.59500424 0.65620227 129.52885429 0.66067696 133.46298218 C0.65985977 134.89754805 0.65400282 136.33212257 0.64238358 137.76664162 C0.50619386 155.46703683 4.14350009 170.71979176 16.65625 183.75390625 C32.12681174 198.57986125 48.6752434 202.56117399 69.47509766 202.5559082 C72.3350645 202.56240922 75.19143524 202.61683857 78.05078125 202.67382812 C90.75688877 202.79049722 101.51042389 200.64695767 113.5592041 196.75491333 C117.28950384 195.60116959 121.06412983 194.70086519 124.87109375 193.83984375 C125.5721373 193.68066971 126.27318085 193.52149567 126.99546814 193.35749817 C129.14122519 192.876613 131.28888442 192.40543871 133.4375 191.9375 C134.58528427 191.68595154 134.58528427 191.68595154 135.7562561 191.42932129 C161.60869442 185.78603382 187.3861468 182.19150846 213.71875 179.796875 C214.448022 179.730448 215.17729401 179.664021 215.92866516 179.59558105 C218.28505003 179.38702909 220.64215281 179.19133637 223 179 C224.06095383 178.91223801 225.12190765 178.82447601 226.2150116 178.73405457 C234.35923451 178.10054153 242.44601256 177.83985461 250.61328125 177.83203125 C252.49227364 177.82703865 252.49227364 177.82703865 254.40922546 177.82194519 C257.04535561 177.81691802 259.68149202 177.81453555 262.31762695 177.81469727 C266.26459803 177.81252635 270.21128184 177.79436739 274.15820312 177.77539062 C289.30121238 177.74145139 304.2489896 178.27749025 319.32241821 179.74020386 C321.76111751 179.97682209 324.20050847 180.19732018 326.64135742 180.41040039 C330.74464452 180.77480769 334.84176605 181.18394982 338.9375 181.625 C339.66638428 181.70348175 340.39526855 181.7819635 341.14624023 181.86282349 C354.20772409 183.30432963 367.0960518 185.4693278 380 187.9375 C380.85761932 188.10058655 381.71523865 188.2636731 382.59884644 188.43170166 C399.29075121 191.63346084 415.89672462 195.39757788 432.0625 200.6875 C433.08778809 201.01999756 434.11307617 201.35249512 435.16943359 201.69506836 C451.8386515 207.17468666 468.54355637 212.90176779 484.27734375 220.72265625 C486.5775569 221.80180934 488.54798332 222.43696855 491 223 C490.855625 221.78183594 490.71125 220.56367187 490.5625 219.30859375 C490.37479204 217.68491986 490.1873037 216.06122057 490 214.4375 C489.85691406 213.23770508 489.85691406 213.23770508 489.7109375 212.01367188 C489.17285824 207.30547833 488.89823297 202.73852735 489 198 C489.66 198 490.32 198 491 198 C491.67286219 202.22820514 492.33720539 206.45770599 493 210.6875 C493.28617188 212.48477539 493.28617188 212.48477539 493.578125 214.31835938 C493.75859375 215.47529297 493.9390625 216.63222656 494.125 217.82421875 C494.29257812 218.88729248 494.46015625 219.95036621 494.6328125 221.0456543 C494.96740069 223.73770997 495.07006305 226.29162531 495 229 C490.04547397 227.48568562 485.52337145 225.43535822 480.875 223.1875 C473.99610148 219.91158793 467.09896659 216.77661193 460 214 C459.0203125 213.61457031 458.040625 213.22914063 457.03125 212.83203125 C449.46398407 209.99430653 441.77214088 207.70319244 434 205.5 C433.04714111 205.22752441 432.09428223 204.95504883 431.11254883 204.67431641 C363.70255426 185.93370992 292.63574515 183.8177255 223.11328125 186.45703125 C222.09179489 186.49503342 221.07030853 186.53303558 220.01786804 186.57218933 C214.94540373 186.78688449 210.02262301 187.21528977 205 188 C203.52907364 188.1087253 202.05606599 188.1944495 200.58203125 188.24609375 C199.80150391 188.27896484 199.02097656 188.31183594 198.21679688 188.34570312 C196.63358089 188.40615085 195.05024398 188.46352206 193.46679688 188.51757812 C187.87797395 188.7601724 182.50953004 189.53140441 177.00268555 190.50268555 C173.30684139 191.11480316 169.60987409 191.50448077 165.88452148 191.88647461 C153.94328339 193.13264867 142.21171454 195.13793466 130.4375 197.4375 C129.68799072 197.58271088 128.93848145 197.72792175 128.16625977 197.87753296 C125.9624448 198.30680089 123.76018438 198.74306622 121.55859375 199.18359375 C120.83564117 199.32749542 120.1126886 199.47139709 119.36782837 199.61965942 C114.63149517 200.58972606 110.04131304 201.85129353 105.39453125 203.1953125 C95.85516484 205.76846811 86.18687078 205.56623564 76.37158203 205.46655273 C73.24067663 205.43741323 70.11145407 205.44602621 66.98046875 205.45898438 C47.46782186 205.44000979 30.69931573 202.40233003 16.16796875 188.2265625 C15.09482422 187.12441406 15.09482422 187.12441406 14 186 C13.37738281 185.40960937 12.75476563 184.81921875 12.11328125 184.2109375 C7.9821643 179.99626987 5.33647434 175.21940281 2.6875 170 C2.34960449 169.33540771 2.01170898 168.67081543 1.66357422 167.98608398 C-2.97032844 158.44259079 -3.28289559 149.71203025 -3.22705078 139.23046875 C-3.22648591 137.741623 -3.2268047 136.2527767 -3.22793579 134.76393127 C-3.22850736 130.74175662 -3.21678496 126.71970234 -3.20278788 122.69755554 C-3.19024768 118.48685321 -3.18910743 114.27614782 -3.18673706 110.06542969 C-3.18053193 102.10061858 -3.16413425 94.13586267 -3.14403808 86.17107582 C-3.12164892 77.09972846 -3.11067807 68.0283784 -3.10064721 58.95701027 C-3.07976714 40.30464227 -3.04461004 21.65232558 -3 3 C-2.34 3 -1.68 3 -1 3 C-0.67 2.01 -0.34 1.02 0 0 Z " fill="#D6D5CC" transform="translate(251,427)"/>
<path d="M0 0 C7.00504091 4.1769188 10.56775467 10.63069461 12.5625 18.375 C13.70333868 27.66304019 12.66996636 36.82382021 6.984375 44.5078125 C1.40310014 50.51648229 -3.80264799 52.51188382 -11.875 52.875 C-18.95628433 52.69613863 -23.0563217 50.76465244 -27.99609375 45.8125 C-33.62111778 39.43853509 -32.75686124 32.70732055 -32.875 24.625 C-32.92076172 23.36171875 -32.96652344 22.0984375 -33.01367188 20.796875 C-33.14001868 10.33755683 -33.14001868 10.33755683 -29.69921875 6.16796875 C-21.5444848 -1.46108019 -10.58213381 -4.72309927 0 0 Z " fill="#7A7B79" transform="translate(360.4375,490.625)"/>
<path d="M0 0 C4.61734816 2.30092685 8.37917206 5.31905919 10.75 9.9375 C11.53310069 14.25558341 11.65665148 18.46012474 11.5871582 22.84350586 C11.56256334 24.86978133 11.6072982 26.88648686 11.65820312 28.91210938 C11.63625818 35.21657798 11.59403106 39.8413698 7.3671875 44.7578125 C0.53838186 51.28415588 -5.66180076 52.4333404 -14.91796875 52.33984375 C-21.00781408 51.60449314 -24.96233445 48.66920874 -28.83984375 44.0390625 C-33.7756066 36.79994366 -35.28177963 28.58661568 -34.25 19.9375 C-32.35800334 12.42064841 -29.69947995 5.91968264 -23.05859375 1.46875 C-15.14778377 -2.98804435 -8.34981596 -3.76241707 0 0 Z " fill="#777877" transform="translate(694.25,490.0625)"/>
<path d="M0 0 C3.80335914 0.57467182 6.45315846 1.64089886 9.7109375 3.66796875 C10.61529541 4.22500488 11.51965332 4.78204102 12.45141602 5.35595703 C13.41619873 5.96036621 14.38098145 6.56477539 15.375 7.1875 C17.43343025 8.45989996 19.49202912 9.73202716 21.55078125 11.00390625 C22.60990723 11.66148926 23.6690332 12.31907227 24.76025391 12.99658203 C30.96691453 16.83470239 37.21805759 20.60002042 43.46044922 24.37963867 C48.04068499 27.16274814 52.57234204 29.97946795 57 33 C56.67 33.99 56.34 34.98 56 36 C53.47731214 37.19864128 51.0470972 38.22406621 48.4375 39.1875 C47.72658203 39.46013672 47.01566406 39.73277344 46.28320312 40.01367188 C44.5259733 40.68590073 42.76345482 41.34427492 41 42 C44.16853475 48.99718091 48.37081413 54.8876769 53 61 C49.82418312 64.44802976 47.39309313 66.41996314 43 68 C31 52.74927954 31 52.74927954 31 50 C26.67454799 52.21179309 24.51677099 54.68601585 21.8125 58.6875 C20.58891029 60.49130051 19.32881345 62.27224918 18 64 C17.34 64 16.68 64 16 64 C12.66423064 53.71005755 10.00337035 43.31454149 7.4375 32.8125 C6.66842774 29.67241547 5.89637935 26.53308747 5.12109375 23.39453125 C4.93807709 22.65075226 4.75506042 21.90697327 4.5664978 21.14065552 C3.38318613 16.38351908 2.06260622 11.69863055 0.50024414 7.04956055 C-0.08594424 4.6478761 -0.08411227 2.46290409 0 0 Z " fill="#F5AE6B" transform="translate(549,503)"/>
<path d="M0 0 C53.36054509 -0.09160616 106.72108222 -0.16206445 160.08169052 -0.20426132 C166.38502688 -0.20926399 172.68836309 -0.2144413 178.99169922 -0.21972656 C180.24655107 -0.2207758 181.50140292 -0.22182505 182.79428059 -0.22290608 C203.09808852 -0.24029927 223.40185102 -0.27183099 243.70563203 -0.30861118 C264.54765517 -0.34605081 285.38965457 -0.36824225 306.23170996 -0.37635398 C319.08670166 -0.38183547 331.94156496 -0.39913255 344.79651713 -0.43166587 C353.61817896 -0.45285103 362.43977466 -0.45919098 371.26146007 -0.45400551 C376.34694938 -0.45144998 381.43221472 -0.45529728 386.51766396 -0.4768219 C391.18291882 -0.49642279 395.8478011 -0.49718303 400.51307386 -0.48359558 C402.19168607 -0.48191863 403.87032245 -0.48687749 405.54888779 -0.49953273 C425.55809549 -0.64149077 441.45076094 3.87802879 456.375 17.6875 C461.7536419 23.38461412 465.74331473 29.88628533 469 37 C469.34058473 37.74100763 469.68116945 38.48201527 470.03207493 39.24547768 C473.30785466 47.20736345 473.56412067 54.57387132 473.50170898 63.08740234 C473.50550043 64.5753073 473.51100723 66.06320871 473.51808167 67.55110168 C473.53194859 71.56167838 473.52092769 75.57182182 473.50437045 79.5823741 C473.49042602 83.80033092 473.49699085 88.01826496 473.50050354 92.23623657 C473.50319888 99.31901959 473.48979051 106.40163249 473.46655273 113.484375 C473.43996785 121.64315 473.43819191 129.8016404 473.4499411 137.96044385 C473.46076721 145.84402334 473.45449275 153.72750108 473.44038582 161.61107254 C473.43466569 164.94965683 473.43467715 168.28816568 473.43945122 171.62675095 C473.44426749 175.56842436 473.4339297 179.50979123 473.41249657 183.45140648 C473.40699043 184.88757099 473.40640562 186.32376535 473.41144943 187.75993156 C473.47002956 206.85198987 468.4520189 220.56854741 456 235 C454.2576815 236.43701798 452.46279402 237.81228999 450.625 239.125 C449.70976563 239.78757812 448.79453125 240.45015625 447.8515625 241.1328125 C444.96183456 243.02499052 442.18472843 244.65767644 439 246 C438.01 245.67 437.02 245.34 436 245 C438.41278263 242.33155828 441.03635737 240.69650719 444.125 238.875 C459.40709065 229.24546599 465.56907842 216.86136722 469.53840923 199.66782856 C470.04002968 196.76864288 470.13486545 194.05772034 470.14717102 191.11552429 C470.15432632 189.93696365 470.16148163 188.75840302 470.16885376 187.54412842 C470.17154266 186.25943665 470.17423157 184.97474487 470.17700195 183.65112305 C470.18327238 182.27734711 470.18991969 180.90357285 470.19691467 179.52980042 C470.21790436 175.02378508 470.22831848 170.51776964 470.23828125 166.01171875 C470.24233197 164.45407405 470.24644898 162.89642952 470.25063133 161.33878517 C470.26967894 154.01210313 470.28390581 146.68543109 470.2922433 139.35872906 C470.30198722 130.93751452 470.32823362 122.51656481 470.36874419 114.09544343 C470.39906517 107.56520817 470.41372755 101.03504807 470.41702431 94.50474387 C470.4193584 90.61526801 470.42810047 86.72607514 470.45348549 82.83667564 C470.60396799 58.49706598 470.14817779 37.9838901 452.375 19.25 C437.50284172 5.16058689 420.48931625 2.69576855 400.89059448 2.7215271 C399.15366994 2.71651907 397.41674773 2.71064179 395.67982876 2.70397437 C390.92515079 2.68822175 386.170532 2.6847463 381.41583109 2.68332577 C376.2816542 2.67962343 371.14750946 2.66446379 366.01335144 2.65071106 C357.12410699 2.62846058 348.23487401 2.61343399 339.34560776 2.60334396 C326.49329793 2.58874507 313.64102807 2.56320482 300.78874172 2.53501268 C279.93566914 2.4895667 259.08259079 2.45294281 238.22949219 2.421875 C217.97525013 2.39168048 197.72102216 2.35732605 177.46679688 2.31738281 C175.59341101 2.31369049 175.59341101 2.31369049 173.68217896 2.30992357 C167.41655931 2.2975488 161.15093983 2.2850923 154.88532043 2.27259517 C102.92356662 2.16906022 50.96179524 2.07984612 -1 2 C-0.67 1.34 -0.34 0.68 0 0 Z " fill="#FCFCFA" transform="translate(307,380)"/>
<path d="M0 0 C0.72501641 -0.00115384 1.45003282 -0.00230769 2.19701943 -0.0034965 C4.63324964 -0.00614927 7.06941414 -0.00165201 9.50564098 0.00279331 C11.26712137 0.00235734 13.0286017 0.00148194 14.79008168 0.00020415 C19.63586364 -0.00203564 24.48162356 0.00197345 29.32740271 0.00698221 C34.55094918 0.01129389 39.77449436 0.00983977 44.99804211 0.00907993 C54.04998921 0.00855516 63.10192911 0.01169715 72.1538744 0.01731777 C85.2415271 0.025439 98.32917632 0.02804863 111.41683128 0.02930576 C132.64982089 0.0314953 153.88280666 0.03815273 175.11579418 0.04760838 C195.74372367 0.05678503 216.37165212 0.06386463 236.99958324 0.06811619 C238.27072974 0.06837891 239.54187624 0.06864164 240.85154233 0.06891232 C247.22840351 0.07021734 253.60526469 0.07148105 259.98212588 0.07272422 C312.89867356 0.08309378 365.81521708 0.10070943 418.73176098 0.12304783 C418.73176098 0.45304783 418.73176098 0.78304783 418.73176098 1.12304783 C210.83176098 1.61804783 210.83176098 1.61804783 -1.26823902 2.12304783 C205.64176098 2.61804783 205.64176098 2.61804783 416.73176098 3.12304783 C416.73176098 3.45304783 416.73176098 3.78304783 416.73176098 4.12304783 C415.8331783 4.12364492 414.93459562 4.12424201 414.00878316 4.12485719 C360.74041279 4.1607584 307.47209888 4.21740858 254.20378085 4.30096878 C247.80645089 4.31098613 241.40912067 4.32083027 235.01179028 4.33056736 C233.7382078 4.33250873 232.46462533 4.33445011 231.15244945 4.33645031 C210.53624827 4.36746348 189.92005822 4.38444906 169.30383811 4.39624205 C148.14652142 4.40865713 126.98926311 4.43616665 105.83198327 4.47766089 C92.77893868 4.50278597 79.72599091 4.51616582 66.6729218 4.5144774 C57.71949489 4.51444762 48.76616653 4.52909214 39.81277803 4.55521211 C34.6487014 4.56984607 29.48482687 4.57807117 24.32073307 4.56885052 C19.58713264 4.56054173 14.85393765 4.57077844 10.12039723 4.59538445 C8.41359128 4.60105134 6.70674669 4.6000787 4.99995259 4.59156027 C-13.19648748 4.5085696 -27.42778977 8.97400606 -40.94792652 21.64648533 C-47.83415049 28.99642809 -51.73761525 37.80024866 -55.26823902 47.12304783 C-55.92823902 47.12304783 -56.58823902 47.12304783 -57.26823902 47.12304783 C-57.06200806 34.74918994 -49.5164548 25.32755314 -41.14323902 16.81445408 C-30.23390015 6.60177136 -14.95800331 -0.00439553 0 0 Z " fill="#929290" transform="translate(308.26823902130127,378.8769521713257)"/>
<path d="M0 0 C0.06058594 0.71027344 0.12117188 1.42054688 0.18359375 2.15234375 C0.26738281 3.07144531 0.35117187 3.99054687 0.4375 4.9375 C0.51871094 5.85402344 0.59992188 6.77054688 0.68359375 7.71484375 C0.76044976 9.96159732 0.76044976 9.96159732 2 11 C3.65306075 11.1957292 5.30707153 11.38539297 6.96411133 11.54394531 C24.75730298 13.2911767 39.48950217 19.37171452 53.58984375 30.4609375 C56.08527042 32.35880043 56.08527042 32.35880043 60 32 C61.7511573 30.5833253 61.7511573 30.5833253 63 29 C64.50751963 31.39429588 65.00562203 32.76387491 64.9375 35.625 C64 38 64 38 61.8125 39.3125 C55.72448353 40.8006818 52.15481637 39.87392376 46.75 36.8125 C28.88384823 27.24811133 8.86546136 25.80535654 -11 25 C-11 17.41 -11 9.82 -11 2 C-4 0 -4 0 0 0 Z " fill="#F3B570" transform="translate(490,509)"/>
<path d="M0 0 C0.66 0 1.32 0 2 0 C2.51046875 1.17755859 2.51046875 1.17755859 3.03125 2.37890625 C8.05320028 13.26425062 13.78827324 18.82155554 25 23 C25 23.66 25 24.32 25 25 C24.21496094 25.3403125 23.42992187 25.680625 22.62109375 26.03125 C11.73574938 31.05320028 6.17844446 36.78827324 2 48 C1.34 48 0.68 48 0 48 C-0.3403125 47.21496094 -0.680625 46.42992187 -1.03125 45.62109375 C-6.05320028 34.73574938 -11.78827324 29.17844446 -23 25 C-23 24.34 -23 23.68 -23 23 C-22.21496094 22.6596875 -21.42992187 22.319375 -20.62109375 21.96875 C-9.73574938 16.94679972 -4.17844446 11.21172676 0 0 Z " fill="#7D7D7D" transform="translate(967,944)"/>
<path d="M0 0 C17.79243364 0.88656456 31.45489551 7.1800209 43.75 20.203125 C47.89862992 25.36010247 51.24360928 30.97909976 54 37 C54.51087709 38.11151145 54.51087709 38.11151145 55.03207493 39.24547768 C58.30785466 47.20736345 58.56412067 54.57387132 58.50170898 63.08740234 C58.50550043 64.5753073 58.51100723 66.06320871 58.51808167 67.55110168 C58.53194859 71.56167838 58.52092769 75.57182182 58.50437045 79.5823741 C58.49042602 83.80033092 58.49699085 88.01826496 58.50050354 92.23623657 C58.50319888 99.31901959 58.48979051 106.40163249 58.46655273 113.484375 C58.43996785 121.64315 58.43819191 129.8016404 58.4499411 137.96044385 C58.46076721 145.84402334 58.45449275 153.72750108 58.44038582 161.61107254 C58.43466569 164.94965683 58.43467715 168.28816568 58.43945122 171.62675095 C58.44426749 175.56842436 58.4339297 179.50979123 58.41249657 183.45140648 C58.40699043 184.88757099 58.40640562 186.32376535 58.41144943 187.75993156 C58.47002956 206.85198987 53.4520189 220.56854741 41 235 C39.2576815 236.43701798 37.46279402 237.81228999 35.625 239.125 C34.70976563 239.78757812 33.79453125 240.45015625 32.8515625 241.1328125 C29.96183456 243.02499052 27.18472843 244.65767644 24 246 C23.01 245.67 22.02 245.34 21 245 C23.41278263 242.33155828 26.03635737 240.69650719 29.125 238.875 C44.40709065 229.24546599 50.56907842 216.86136722 54.53840923 199.66782856 C55.04002968 196.76864288 55.13486545 194.05772034 55.14717102 191.11552429 C55.15432632 189.93696365 55.16148163 188.75840302 55.16885376 187.54412842 C55.17154266 186.25943665 55.17423157 184.97474487 55.17700195 183.65112305 C55.18327238 182.27734711 55.18991969 180.90357285 55.19691467 179.52980042 C55.21790436 175.02378508 55.22831848 170.51776964 55.23828125 166.01171875 C55.24233197 164.45407405 55.24644898 162.89642952 55.25063133 161.33878517 C55.26967894 154.01210313 55.28390581 146.68543109 55.2922433 139.35872906 C55.30198722 130.93751452 55.32823362 122.51656481 55.36874419 114.09544343 C55.39906517 107.56520817 55.41372755 101.03504807 55.41702431 94.50474387 C55.4193584 90.61526801 55.42810047 86.72607514 55.45348549 82.83667564 C55.60396799 58.49706598 55.14817779 37.9838901 37.375 19.25 C27.65182569 10.0385717 16.27493811 5.41869638 3.30078125 2.67578125 C2.54152344 2.45277344 1.78226563 2.22976563 1 2 C0.67 1.34 0.34 0.68 0 0 Z " fill="#E3E2D9" transform="translate(722,380)"/>
<path d="M0 0 C4.29 0 8.58 0 13 0 C13 20.79 13 41.58 13 63 C12.67 63 12.34 63 12 63 C12 59.7 12 56.4 12 53 C10.6696875 53.495 10.6696875 53.495 9.3125 54 C6.25922627 54.92174301 4.13759724 55.08552224 1 55 C0.16999149 48.03395169 -0.13645738 41.19152546 -0.09765625 34.1796875 C-0.0962413 33.19501495 -0.09482635 32.21034241 -0.09336853 31.1958313 C-0.08782615 28.088855 -0.07528483 24.98195407 -0.0625 21.875 C-0.05747754 19.75260522 -0.05291595 17.63020929 -0.04882812 15.5078125 C-0.03787567 10.33851317 -0.02065166 5.16926931 0 0 Z " fill="#65EACF" transform="translate(478,456)"/>
<path d="M0 0 C0.33 0 0.66 0 1 0 C0.99723462 0.76623027 0.99446924 1.53246054 0.99162006 2.3219099 C0.92521495 21.01135264 0.87564895 39.70077167 0.84456348 58.39030743 C0.8291292 67.42862385 0.80810583 76.46686126 0.77368164 85.50512695 C0.74367357 93.38770965 0.72440004 101.2702351 0.71773452 109.15287334 C0.71384148 113.32229601 0.70476497 117.49155498 0.68280983 121.66092491 C0.6622639 125.59500424 0.65620227 129.52885429 0.66067696 133.46298218 C0.65985977 134.89754805 0.65400282 136.33212257 0.64238358 137.76664162 C0.50619386 155.46703683 4.14350009 170.71979176 16.65625 183.75390625 C24.46093033 191.23339156 33.5570966 197.52444206 44.1875 200.1875 C45.115625 200.455625 46.04375 200.72375 47 201 C47.33 201.99 47.66 202.98 48 204 C36.56116879 202.74842305 26.45666977 197.70188504 18 190 C17.17886719 189.29359375 16.35773438 188.5871875 15.51171875 187.859375 C10.49000684 183.2567741 6.78167168 178.5153587 3.5625 172.5625 C3.24466553 171.97855469 2.92683105 171.39460937 2.59936523 170.79296875 C-2.63474353 160.47956487 -3.43251062 150.30146481 -3.34057617 138.88989258 C-3.33972814 137.40060442 -3.34020848 135.91131502 -3.34190369 134.42202759 C-3.34275818 130.41236399 -3.32522178 126.40297416 -3.30418181 122.39337373 C-3.28532316 118.19070495 -3.28365738 113.98802866 -3.28010559 109.7853241 C-3.27081195 101.84182898 -3.2462348 93.89845894 -3.21605712 85.9550187 C-3.18242923 76.9053767 -3.16600609 67.85572846 -3.15097082 58.80603945 C-3.1196826 40.20395561 -3.06697474 21.60198789 -3 3 C-2.34 3 -1.68 3 -1 3 C-0.67 2.01 -0.34 1.02 0 0 Z " fill="#C1C0B9" transform="translate(251,427)"/>
<path d="M0 0 C3.96 0 7.92 0 12 0 C12 17.49 12 34.98 12 53 C8.04 52.67 4.08 52.34 0 52 C0 34.84 0 17.68 0 0 Z " fill="#5FE7CA" transform="translate(604,455)"/>
<path d="M0 0 C8.49609375 -0.09765625 8.49609375 -0.09765625 11 0 C12 1 12 1 12.11352539 3.40844727 C12.10828857 4.45057373 12.10305176 5.4927002 12.09765625 6.56640625 C12.09443359 7.69111328 12.09121094 8.81582031 12.08789062 9.97460938 C12.07951172 11.15861328 12.07113281 12.34261719 12.0625 13.5625 C12.05798828 14.75037109 12.05347656 15.93824219 12.04882812 17.16210938 C12.03699675 20.10812226 12.02051287 23.05403681 12 26 C6.5190421 26.25820358 3.19901916 26.12448929 -1.625 23.25 C-3.01525391 22.43402344 -3.01525391 22.43402344 -4.43359375 21.6015625 C-7.33594175 19.79035598 -10.20076809 17.96702783 -13 16 C-12.67 15.34 -12.34 14.68 -12 14 C-8.01434954 13.39386091 -4.02725031 13.25435265 0 13 C0 8.71 0 4.42 0 0 Z " fill="#F4CC85" transform="translate(604,507)"/>
<path d="M0 0 C0.66 0 1.32 0 2 0 C2.67286219 4.22820514 3.33720539 8.45770599 4 12.6875 C4.19078125 13.88568359 4.3815625 15.08386719 4.578125 16.31835938 C4.75859375 17.47529297 4.9390625 18.63222656 5.125 19.82421875 C5.29257812 20.88729248 5.46015625 21.95036621 5.6328125 23.0456543 C5.96740069 25.73770997 6.07006305 28.29162531 6 31 C1.04547397 29.48568562 -3.47662855 27.43535822 -8.125 25.1875 C-24.94134964 17.17911282 -42.10922353 11.08999089 -60 6 C-56.79860244 3.86573496 -55.90773304 3.77486546 -52.27099609 4.4296875 C-47.0020531 5.75287078 -41.91624195 7.65442593 -36.8125 9.5 C-35.57757812 9.9427124 -34.34265625 10.3854248 -33.0703125 10.84155273 C-23.08699835 14.45917687 -13.4068372 18.60606051 -3.84570312 23.21899414 C-1.92028627 24.03373072 -0.0380074 24.54607504 2 25 C1.855625 23.78183594 1.71125 22.56367187 1.5625 21.30859375 C1.37479204 19.68491986 1.1873037 18.06122057 1 16.4375 C0.90460937 15.63763672 0.80921875 14.83777344 0.7109375 14.01367188 C0.17285824 9.30547833 -0.10176703 4.73852735 0 0 Z " fill="#BDBBB3" transform="translate(740,625)"/>
<path d="M0 0 C0.33 0 0.66 0 1 0 C1.33 13.2 1.66 26.4 2 40 C5.59628479 41.4472136 5.59628479 41.4472136 12 40 C12 26.8 12 13.6 12 0 C12.33 0 12.66 0 13 0 C13 20.79 13 41.58 13 63 C12.67 63 12.34 63 12 63 C12 59.7 12 56.4 12 53 C10.6696875 53.495 10.6696875 53.495 9.3125 54 C6.25922627 54.92174301 4.13759724 55.08552224 1 55 C0.16999149 48.03395169 -0.13645738 41.19152546 -0.09765625 34.1796875 C-0.0962413 33.19501495 -0.09482635 32.21034241 -0.09336853 31.1958313 C-0.08782615 28.088855 -0.07528483 24.98195407 -0.0625 21.875 C-0.05747754 19.75260522 -0.05291595 17.63020929 -0.04882812 15.5078125 C-0.03787567 10.33851317 -0.02065166 5.16926931 0 0 Z " fill="#75CBB4" transform="translate(478,456)"/>
<path d="M0 0 C-0.33 0.66 -0.66 1.32 -1 2 C-3.39589832 2.63589251 -5.76479514 3.17736884 -8.1875 3.6875 C-23.73162808 7.32137327 -36.82381336 14.86634725 -45.875 28.375 C-49.20655322 33.98645952 -51.6922904 39.90637051 -54 46 C-54.66 46 -55.32 46 -56 46 C-55.79376904 33.62614211 -48.24821578 24.20450532 -39.875 15.69140625 C-29.45621823 5.9379543 -14.51218265 -1.62922633 0 0 Z " fill="#D4D3C9" transform="translate(307,380)"/>
<path d="M0 0 C3.96 0 7.92 0 12 0 C12 17.49 12 34.98 12 53 C8.04 52.67 4.08 52.34 0 52 C0 47.71 0 43.42 0 39 C3.3 39.33 6.6 39.66 10 40 C10.33 27.13 10.66 14.26 11 1 C7.37 1 3.74 1 0 1 C0 0.67 0 0.34 0 0 Z " fill="#6BD5C0" transform="translate(604,455)"/>
<path d="M0 0 C4.08656228 0.45306563 6.93587279 1.92529569 10.4140625 4.0546875 C11.92613281 4.97701172 11.92613281 4.97701172 13.46875 5.91796875 C14.5103125 6.56378906 15.551875 7.20960938 16.625 7.875 C17.67429687 8.51308594 18.72359375 9.15117187 19.8046875 9.80859375 C28.27394483 15.00958639 28.27394483 15.00958639 31 18 C30.34 18 29.68 18 29 18 C28.67 18.66 28.34 19.32 28 20 C27.34926514 19.61142822 26.69853027 19.22285645 26.02807617 18.82250977 C23.08298872 17.06618295 20.13528505 15.3142951 17.1875 13.5625 C16.16333984 12.95083984 15.13917969 12.33917969 14.08398438 11.70898438 C13.10107422 11.12568359 12.11816406 10.54238281 11.10546875 9.94140625 C10.19949951 9.40201416 9.29353027 8.86262207 8.36010742 8.30688477 C5.96548122 6.88686965 5.96548122 6.88686965 3 6 C3.33 9.3 3.66 12.6 4 16 C3.01 16.33 2.02 16.66 1 17 C0.46530198 15.27507022 -0.05219175 13.544802 -0.5625 11.8125 C-0.85253906 10.84957031 -1.14257812 9.88664062 -1.44140625 8.89453125 C-2.02837986 5.85294074 -1.87472336 3.94891769 -1 1 C-0.67 0.67 -0.34 0.34 0 0 Z " fill="#5C665E" transform="translate(546,497)"/>
<path d="M0 0 C0.99 0.66 1.98 1.32 3 2 C0.67242555 15.85591379 -6.7714013 28.83671522 -18.375 37.125 C-19.29023437 37.78757812 -20.20546875 38.45015625 -21.1484375 39.1328125 C-24.03816544 41.02499052 -26.81527157 42.65767644 -30 44 C-30.99 43.67 -31.98 43.34 -33 43 C-30.58721737 40.33155828 -27.96364263 38.69650719 -24.875 36.875 C-10.46743527 27.7965213 -3.96023023 16.16705751 0 0 Z " fill="#CBC9C2" transform="translate(776,582)"/>
<path d="M0 0 C0.33 0 0.66 0 1 0 C0.89529184 0.83781163 0.89529184 0.83781163 0.78846836 1.69254875 C-0.0595075 9.16071565 -0.1716168 16.56795712 -0.20532227 24.07861328 C-0.21492223 25.46923601 -0.22493348 26.85985595 -0.23532104 28.25047302 C-0.26214702 31.99561118 -0.28327602 35.74076166 -0.30332303 39.48594141 C-0.3253217 43.41104989 -0.3526419 47.3361214 -0.37937927 51.26119995 C-0.4291198 58.68049175 -0.47412708 66.09980428 -0.51740164 73.51913631 C-0.56693423 81.97146882 -0.62179249 90.42376421 -0.67708123 98.87606072 C-0.79061479 116.25067275 -0.89751517 133.62531936 -1 151 C-1.33 151 -1.66 151 -2 151 C-2.04668471 131.75501951 -2.08197151 112.51005048 -2.10362434 93.26502514 C-2.11394457 84.3295776 -2.12801913 75.39416521 -2.15087891 66.45874023 C-2.17078997 58.67220754 -2.183711 50.88570029 -2.18817699 43.09914285 C-2.19078825 38.97479211 -2.19694128 34.85051419 -2.21146011 30.72618675 C-2.22500798 26.84634286 -2.22922833 22.96660198 -2.22621536 19.08673668 C-2.22676678 17.6608779 -2.23076088 16.23501576 -2.23841095 14.8091774 C-2.24832788 12.86594874 -2.24478513 10.92266515 -2.24050903 8.97941589 C-2.24235262 7.89077838 -2.24419621 6.80214087 -2.24609566 5.68051434 C-2 3 -2 3 0 0 Z " fill="#E0DFD6" transform="translate(251,427)"/>
<path d="M0 0 C0.33 0 0.66 0 1 0 C1.05069411 6.76266277 1.08573108 13.52527655 1.10986328 20.28808594 C1.1199232 22.58888582 1.13357262 24.8896729 1.15087891 27.19042969 C1.17512735 30.4967769 1.18648323 33.80295512 1.1953125 37.109375 C1.20563507 38.13867126 1.21595764 39.16796753 1.22659302 40.22845459 C1.22674408 41.18914856 1.22689514 42.14984253 1.22705078 43.13964844 C1.231492 43.98348083 1.23593323 44.82731323 1.24050903 45.69671631 C0.97855059 48.20541467 0.25924304 49.83328958 -1 52 C-1.33 52 -1.66 52 -2 52 C-1.88234321 45.23717719 -1.7575128 38.47451411 -1.62768555 31.71191406 C-1.58436394 29.41116338 -1.54268687 27.11038112 -1.50268555 24.80957031 C-1.44491605 21.50315839 -1.38124051 18.196905 -1.31640625 14.890625 C-1.29969376 13.86132874 -1.28298126 12.83203247 -1.26576233 11.77154541 C-1.24581711 10.81085144 -1.22587189 9.85015747 -1.20532227 8.86035156 C-1.18977798 8.01651917 -1.1742337 7.17268677 -1.15821838 6.30328369 C-1.00592429 4.08624356 -0.61217912 2.13149621 0 0 Z " fill="#DDDCD3" transform="translate(779,533)"/>
<path d="M0 0 C15.18 0.33 30.36 0.66 46 1 C45.67 1.66 45.34 2.32 45 3 C39.23424086 3.07418336 33.46875983 3.12861797 27.70263672 3.16479492 C25.74132447 3.17987695 23.78004592 3.20034547 21.81884766 3.22631836 C18.99893882 3.26272731 16.17947608 3.27973216 13.359375 3.29296875 C12.48319519 3.30845261 11.60701538 3.32393646 10.70428467 3.33988953 C9.47346161 3.34022942 9.47346161 3.34022942 8.21777344 3.34057617 C7.49829529 3.34723801 6.77881714 3.35389984 6.03753662 3.36076355 C4 3 4 3 0 0 Z " fill="#DAD8D0" transform="translate(297,629)"/>
<path d="M0 0 C0.33 0 0.66 0 1 0 C1.00808685 0.61228455 1.01617371 1.22456909 1.02450562 1.85540771 C1.11117158 8.28059176 1.21069497 14.70548901 1.31738281 21.13037109 C1.3554515 23.52192331 1.39034113 25.91352848 1.421875 28.30517578 C1.46800944 31.76093358 1.5259201 35.21633364 1.5859375 38.671875 C1.59748871 39.72550232 1.60903992 40.77912964 1.62094116 41.86468506 C1.76114367 49.062979 2.63612043 55.93270454 4 63 C2.515 63.99 2.515 63.99 1 65 C-1.04517259 57.48591025 -1.18849246 50.62834671 -0.9765625 42.87109375 C-0.95153656 41.64084976 -0.92651062 40.41060577 -0.90072632 39.14308167 C-0.81901816 35.24092009 -0.72223818 31.33930237 -0.625 27.4375 C-0.56548367 24.78064261 -0.50940825 22.12372635 -0.453125 19.46679688 C-0.31351277 12.97756787 -0.16154803 6.488718 0 0 Z " fill="#CCCCC4" transform="translate(250,527)"/>
<path d="M0 0 C6.98988441 7.79640954 13.13126402 18.87766335 13.1875 29.5625 C13.125625 30.696875 13.06375 31.83125 13 33 C12.67 33 12.34 33 12 33 C11.71125 31.88625 11.4225 30.7725 11.125 29.625 C10.30758671 25.99708908 10.30758671 25.99708908 8 24 C7.53039478 22.53677887 7.12215091 21.05348922 6.75 19.5625 C5.28735721 14.32136333 2.91405016 9.98872586 0.109375 5.34765625 C-1 3 -1 3 0 0 Z " fill="#D9D9D2" transform="translate(767,403)"/>
<path d="M0 0 C-0.33 0.66 -0.66 1.32 -1 2 C-3.54381411 2.73231012 -6.04493574 3.36491889 -8.625 3.9375 C-12.87901982 4.88936631 -16.86725223 5.8552891 -20.8359375 7.69140625 C-24 9 -24 9 -27 8 C-20.66921095 0.50416991 -9.17492358 -0.82739792 0 0 Z " fill="#DDDDD5" transform="translate(307,380)"/>
<path d="M0 0 C5.36194389 2.0444822 10.4684373 4.43829205 15 8 C16.125 11.375 16.125 11.375 16 14 C14.02 14.99 14.02 14.99 12 16 C12.33 14.68 12.66 13.36 13 12 C12.0615625 11.45730469 11.123125 10.91460938 10.15625 10.35546875 C8.9371573 9.63339077 7.71842575 8.91070281 6.5 8.1875 C5.87996094 7.83107422 5.25992188 7.47464844 4.62109375 7.10742188 C3.0286112 6.15368233 1.50753916 5.08302607 0 4 C0 2.66666667 0 1.33333333 0 0 Z " fill="#67635B" transform="translate(592,524)"/>
<path d="M0 0 C0 4.95 0 9.9 0 15 C-0.33 15 -0.66 15 -1 15 C-1 11.7 -1 8.4 -1 5 C-1.886875 5.33 -2.77375 5.66 -3.6875 6 C-6.70923347 6.91222143 -8.88373706 7.18330958 -12 7 C-12 5.35 -12 3.7 -12 2 C-10.18769567 1.66560447 -8.3751509 1.33251176 -6.5625 1 C-5.04849609 0.7215625 -5.04849609 0.7215625 -3.50390625 0.4375 C-1 0 -1 0 0 0 Z " fill="#CED4A0" transform="translate(491,504)"/>
<path d="M0 0 C3.96 0 7.92 0 12 0 C12 1.98 12 3.96 12 6 C8.04 5.67 4.08 5.34 0 5 C0 3.35 0 1.7 0 0 Z " fill="#B6D6A7" transform="translate(604,502)"/>
<path d="M0 0 C0.66 0.33 1.32 0.66 2 1 C1.25241804 4.80332323 -0.34783535 8.07150787 -2 11.5625 C-4.19219245 16.20423823 -4.19219245 16.20423823 -6 21 C-6.66 21 -7.32 21 -8 21 C-7.85868946 12.52136736 -4.55396501 7.0271366 0 0 Z " fill="#D5D3C9" transform="translate(259,405)"/>
<path d="M0 0 C1.62490954 -0.02698189 3.24994633 -0.04638757 4.875 -0.0625 C5.77992188 -0.07410156 6.68484375 -0.08570313 7.6171875 -0.09765625 C10 0 10 0 12 1 C12 2.32 12 3.64 12 5 C8.04 5 4.08 5 0 5 C0 3.35 0 1.7 0 0 Z " fill="#93D9B4" transform="translate(604,497)"/>
<path d="M0 0 C2.20844555 1.74835273 2.93950114 2.60675742 3.375 5.4375 C2.93956032 8.41300448 1.97538528 9.77769156 0 12 C-0.99 9.69 -1.98 7.38 -3 5 C-3.99 6.485 -3.99 6.485 -5 8 C-7.4375 7.625 -7.4375 7.625 -10 7 C-10.33 6.34 -10.66 5.68 -11 5 C-8.03 5.495 -8.03 5.495 -5 6 C-4.67 5.01 -4.34 4.02 -4 3 C-1.9375 1.3125 -1.9375 1.3125 0 0 Z " fill="#716254" transform="translate(555,534)"/>
<path d="M0 0 C0.33 1.32 0.66 2.64 1 4 C-0.73956658 5.73956658 -3.1936622 5.37190386 -5.5625 5.5625 C-7.08037109 5.68818359 -7.08037109 5.68818359 -8.62890625 5.81640625 C-9.41136719 5.87699219 -10.19382812 5.93757813 -11 6 C-11 4.35 -11 2.7 -11 1 C-5.555 0.505 -5.555 0.505 0 0 Z " fill="#A4D9B2" transform="translate(490,500)"/>
<path d="M0 0 C0.99 0.66 1.98 1.32 3 2 C2.02541328 7.80165739 0.98746845 12.83982722 -2 18 C-2.99 17.67 -3.98 17.34 -5 17 C-4.80664062 16.443125 -4.61328125 15.88625 -4.4140625 15.3125 C-2.68625575 10.24882873 -1.2306933 5.20677935 0 0 Z " fill="#BEBEB3" transform="translate(776,582)"/>
<path d="M0 0 C0.66 0 1.32 0 2 0 C2.33910994 2.04071515 2.67102704 4.08262621 3 6.125 C3.185625 7.26195312 3.37125 8.39890625 3.5625 9.5703125 C3.97315984 12.78959233 4.22522996 15.76231931 4 19 C3.34 19.66 2.68 20.32 2 21 C1.66034526 18.81347261 1.32857523 16.62571975 1 14.4375 C0.814375 13.21933594 0.62875 12.00117187 0.4375 10.74609375 C0.01444923 7.12372152 -0.07501425 3.64287954 0 0 Z " fill="#D6D5CA" transform="translate(740,625)"/>
<path d="M0 0 C3.48681101 3.48681101 4.79878987 8.5074582 5.19140625 13.37109375 C5.18805976 15.24847731 5.10225091 17.12540005 5 19 C4.67 19 4.34 19 4 19 C3.71125 17.88625 3.4225 16.7725 3.125 15.625 C2.30758671 11.99708908 2.30758671 11.99708908 0 10 C-0.44921875 8.125 -0.44921875 8.125 -0.6875 6 C-0.77386719 5.29875 -0.86023438 4.5975 -0.94921875 3.875 C-1 2 -1 2 0 0 Z " fill="#CCCCC3" transform="translate(775,417)"/>
<path d="M0 0 C0.66 0 1.32 0 2 0 C2.054138 2.24973447 2.09285491 4.49984383 2.125 6.75 C2.14820313 8.00296875 2.17140625 9.2559375 2.1953125 10.546875 C2.01537302 13.72820492 1.68998582 15.36521896 0 18 C-0.33 18 -0.66 18 -1 18 C-0.505 9.09 -0.505 9.09 0 0 Z " fill="#D3D2C8" transform="translate(778,567)"/>
<path d="M0 0 C4.59959851 0.27056462 6.724022 2.25603163 9.86328125 5.33203125 C11 7 11 7 11 11 C9 11 9 11 7.34375 9.35546875 C6.7353125 8.64003906 6.126875 7.92460937 5.5 7.1875 C4.8915625 6.47980469 4.283125 5.77210938 3.65625 5.04296875 C2 3 2 3 0 0 Z " fill="#E0E0D9" transform="translate(756,395)"/>
<path d="M0 0 C6.30596952 1.10938353 11.37529486 2.93197901 17 6 C17 6.33 17 6.66 17 7 C10.50857435 6.57664615 5.66507011 4.08900201 0 1 C0 0.67 0 0.34 0 0 Z " fill="#CECCC5" transform="translate(704,636)"/>
<path d="M0 0 C0.66 0.33 1.32 0.66 2 1 C-0.97 4.3 -3.94 7.6 -7 11 C-7.66 10.67 -8.32 10.34 -9 10 C-7.68954637 6.06863911 -6.16791954 3.68793173 -3 1 C-2.01 0.67 -1.02 0.34 0 0 Z " fill="#D9D8CF" transform="translate(269,396)"/>
<path d="M0 0 C0.33 0 0.66 0 1 0 C1.33 4.62 1.66 9.24 2 14 C1.34 14 0.68 14 0 14 C-0.28875 13.38125 -0.5775 12.7625 -0.875 12.125 C-1.93720042 9.86674235 -1.93720042 9.86674235 -4 8 C-3.34 8 -2.68 8 -2 8 C-1.7834375 6.576875 -1.7834375 6.576875 -1.5625 5.125 C-1 2 -1 2 0 0 Z " fill="#B0AFA8" transform="translate(744,642)"/>
<path d="M0 0 C0 0.66 0 1.32 0 2 C0.66 2.33 1.32 2.66 2 3 C-2.84241633 4.33583899 -6.93437617 5.25328119 -12 5 C-11 3 -11 3 -9.00390625 2.1484375 C-8.19824219 1.89320313 -7.39257812 1.63796875 -6.5625 1.375 C-5.75941406 1.11460937 -4.95632813 0.85421875 -4.12890625 0.5859375 C-2 0 -2 0 0 0 Z " fill="#D5D4CB" transform="translate(354,627)"/>
<path d="M0 0 C0.99 0.33 1.98 0.66 3 1 C1.61019248 2.13243576 0.21285323 3.25563119 -1.1875 4.375 C-1.96480469 5.00148438 -2.74210938 5.62796875 -3.54296875 6.2734375 C-5.96879382 7.97807134 -8.21309045 9.01987906 -11 10 C-9.75330996 6.25992989 -8.31486492 5.48752843 -5.125 3.25 C-4.24070312 2.61578125 -3.35640625 1.9815625 -2.4453125 1.328125 C-1.23488281 0.67070313 -1.23488281 0.67070313 0 0 Z " fill="#C9C9C1" transform="translate(721,596)"/>
<path d="M0 0 C-0.33 0.99 -0.66 1.98 -1 3 C-4.3 3.33 -7.6 3.66 -11 4 C-11 3.34 -11 2.68 -11 2 C-7.17010894 0.19769832 -4.21878192 -0.19622241 0 0 Z " fill="#D5D5CD" transform="translate(365,625)"/>
<path d="M0 0 C0.33 0 0.66 0 1 0 C1.66 3.96 2.32 7.92 3 12 C2.01 12.66 1.02 13.32 0 14 C-0.77916092 8.97874074 -1.13016601 5.02296004 0 0 Z " fill="#B6B7AE" transform="translate(251,578)"/>
<path d="M0 0 C3.63 0 7.26 0 11 0 C11 0.99 11 1.98 11 3 C7.37 2.67 3.74 2.34 0 2 C0 1.34 0 0.68 0 0 Z " fill="#CDD59F" transform="translate(604,505)"/>
<path d="M0 0 C6.875 3.75 6.875 3.75 8 6 C5.75 6.25 5.75 6.25 3 6 C0.6875 4 0.6875 4 -1 2 C-0.67 1.34 -0.34 0.68 0 0 Z " fill="#D4D4CC" transform="translate(751,389)"/>
<path d="M0 0 C0.33 0.99 0.66 1.98 1 3 C-5.625 2.25 -5.625 2.25 -9 0 C-5.93109813 -1.53445094 -3.29905734 -0.54984289 0 0 Z " fill="#CAC7C1" transform="translate(298,628)"/>
<path d="M0 0 C0.66 0.66 1.32 1.32 2 2 C-0.64 2.33 -3.28 2.66 -6 3 C-6 2.34 -6 1.68 -6 1 C-6.66 0.67 -7.32 0.34 -8 0 C-4.96083486 -0.97687451 -3.01586454 -1.105817 0 0 Z " fill="#C8C6C0" transform="translate(371,624)"/>
<path d="M0 0 C1 3 1 3 -0.25 5.6875 C-0.8275 6.450625 -1.405 7.21375 -2 8 C-2.99 8 -3.98 8 -5 8 C-3.8141763 4.62496331 -2.72426311 2.35277269 0 0 Z " fill="#D0CFC5" transform="translate(772,598)"/>
<path d="M0 0 C0.66 0.33 1.32 0.66 2 1 C1.40072174 4.35595828 0.15377564 6.37801226 -2 9 C-2.66 8.67 -3.32 8.34 -4 8 C-2.87548273 5.0280615 -1.77706209 2.66559313 0 0 Z " fill="#CAC8BF" transform="translate(259,405)"/>
<path d="M0 0 C0.69867187 0.0721875 1.39734375 0.144375 2.1171875 0.21875 C3.02726563 0.3115625 3.93734375 0.404375 4.875 0.5 C5.77992188 0.5928125 6.68484375 0.685625 7.6171875 0.78125 C9.93313211 1.03047295 9.93313211 1.03047295 12 1 C12 1.99 12 2.98 12 4 C8.04 3.67 4.08 3.34 0 3 C0 2.01 0 1.02 0 0 Z " fill="#78DBBD" transform="translate(604,494)"/>
<path d="M0 0 C0.66 0 1.32 0 2 0 C2.33 0.99 2.66 1.98 3 3 C2.67 3.66 2.34 4.32 2 5 C1.9603287 6.66619446 1.95615553 8.33391013 2 10 C1.01 10.495 1.01 10.495 0 11 C0 7.37 0 3.74 0 0 Z " fill="#6A6B68" transform="translate(325,558)"/>
<path d="M0 0 C3 1 3 1 4 3 C4.13415472 5.6723621 4.04318541 8.32250488 4 11 C3.67 11 3.34 11 3 11 C0.85714286 3.57142857 0.85714286 3.57142857 0 0 Z " fill="#BCBDB5" transform="translate(776,425)"/>
<path d="M0 0 C0 0.66 0 1.32 0 2 C0.66 2.33 1.32 2.66 2 3 C0.02 3.33 -1.96 3.66 -4 4 C-4 3.34 -4 2.68 -4 2 C-4.66 1.67 -5.32 1.34 -6 1 C-3.92446352 0.4465236 -2.15634036 0 0 0 Z " fill="#BEBDB6" transform="translate(354,627)"/>
<path d="M0 0 C0.66 0.33 1.32 0.66 2 1 C0.1875 3 0.1875 3 -2 5 C-2.99 5 -3.98 5 -5 5 C-4.1875 3.0625 -4.1875 3.0625 -3 1 C-2.01 0.67 -1.02 0.34 0 0 Z " fill="#E2E0D7" transform="translate(269,396)"/>
<path d="M0 0 C2.875 -0.125 2.875 -0.125 6 0 C6.66 0.66 7.32 1.32 8 2 C5.6875 2.6875 5.6875 2.6875 3 3 C1.1875 1.5625 1.1875 1.5625 0 0 Z " fill="#E7E6DE" transform="translate(722,380)"/>
</svg>
